<svg height="24" width="24" xmlns="http://www.w3.org/2000/svg"><g transform="translate(0 -1028.4)"><path d="m23 12a11 11 0 1 1 -22 0 11 11 0 1 1 22 0z" fill="#2980b9" transform="translate(0 1028.4)"/><path d="m12 1029.4v22c6.075 0 11-5 11-11 0-6.1-4.925-11-11-11z" fill="#3498db"/><path d="m12 1029.4v.2l.406-.1c.101-.1.122-.1.219-.1h-.375zm2.469.3c-.025 0 .147.3.375.6.284.5.386.7.437.7.105-.1.651-.4 1.031-.7-.576-.3-1.189-.5-1.812-.6zm3.5 2.1c-.038 0-.13 0-.313.2l-.281.3.187.2c.107.2.263.3.344.4.179.2.197.2.032.5-.072.2-.108.3-.094.3.019.1.105.1.468.1h.532c.031 0 .102-.2.125-.4l.031-.3-.375-.3c-.323-.3-.354-.3-.469-.6-.07-.2-.157-.4-.187-.4zm-1.031.8c-.065 0-.436.7-.438.8-.001 0 .115.2.25.3s.229.2.25.2c.042 0 .4-.4.469-.5.031-.1-.041-.2-.219-.4-.135-.2-.28-.4-.312-.4zm3.218.4c.012 0 .063.1.063.1-.001.1-.222.3-.469.5-.399.3-.47.4-.688.4-.2 0-.312.1-.624.3-.209.2-.396.3-.407.4-.011 0 .081.1.188.3.222.2.221.3.062.6l-.125.1h-.375c-.213 0-.498 0-.625-.1-.29 0-.268 0-.031.7.351 1 .374 1.1.437 1.1.036 0 .454-.4.938-.8s.909-.8.938-.8c.028 0 .101.1.187.1.149.1.171 0 .437-.2l.282-.2.281.2c.633.4.728.5.781.8.083.5.117.6.156.6s.428-.5.532-.6c.05-.1-.022-.2-.375-.7-.221-.3-.376-.6-.375-.7 0 0 .049 0 .094-.1.058 0 .134.1.343.3-.437-.8-.991-1.6-1.625-2.3zm.938 3.6c-.065 0-.313.3-.282.4.017 0 .1.1.157.1h.187c.076 0 .089 0 .063-.1-.045-.2-.082-.4-.125-.4zm-.875.4h-.813l-.812.1-1.5 1.2-1.5 1.3v1.2c.005.7.014 1.3.031 1.3s.237.3.5.5c.263.3.52.5.594.6.133.1.176.1 1.343.2l1.157.1.531.3c.278.2.518.4.531.4s-.097.1-.219.2l-.218.2.344.4c.184.2.44.5.562.6l.188.3v.6.3c1.26-1.7 2.014-3.9 2.062-6.2.019-.9-.088-1.8-.281-2.7-.069 0-.166-.1-.188-.1-.035 0-.184.1-.343.2-.16.1-.344.3-.376.3-.031 0-.274-.1-.593-.2l-.594-.2v-.3c.005-.2-.009-.3-.187-.5zm-8.219 8.7v.1h.062c.001 0-.059-.1-.062-.1z" fill="#2ecc71"/><path d="m12 1c-1.061-.00015-2.0908.1568-3.0625.4375.0854.1407.1165.1447.2187.3125.516.8467.5766.948.7188.9688.0852.0124.314.0226.531.0312h.406l.313-.6875.281-.6563.594-.1874zm-5.7188 1.5938c-.9568.583-1.8261 1.3173-2.5624 2.1562-1.2717 1.4487-2.1298 3.2408-2.5 5.2188.1551-.009.2943-.0378.625-.0313.9446.0183.8348-.0167 1.1562.4685.1794.271.1914.261.4688.282.3304.024.3164.008.1562-.532-.0624-.2098-.0945-.4148-.0938-.4685.001-.0645.181-.2205.5626-.5313.6368-.5186.5933-.4398.5-.9687-.0194-.109.023-.2055.2187-.4063.2326-.2386.229-.208.4687-.1874h.25l.0313-.4063c.0182-.2321.0482-.4239.0625-.4375s.6299-.3778 1.375-.7812c.7451-.4036 1.3993-.745 1.4375-.7813.0594-.0567-.1026-.2723-.9063-1.2813-.5172-.6492-.9396-1.2168-.9687-1.25-.0055-.0062-.2208-.0464-.2813-.0624zm-1.9687 7.7812c-.0236.014-.0288.1-.0313.219-.0042.207-.0019.223.2188.344.2717.148.3191.167.2812.062-.058-.161-.4273-.649-.4687-.625zm-1.1563.719c-.0619.036-.2007.547-.1562.594.0217.022.3194.087.625.156.3508.079.5563.121.5938.094.085-.063.2049-.389.1562-.438-.0614-.062-1.1723-.434-1.2188-.406zm-1.2812.344-.375.187c-.1997.105-.4098.22-.4688.219-.0041 0-.0259.001-.0312 0-.00716.477.0415.943.0938 1.406l.2187.125.3437-.031h.3438l.2188.468c.1155.25.2366.475.2812.5.0446.026.3418.026.625.032h.5l-.0312.406c-.0085.412.0051.43-.2188.75-.1284.183-.2197.399-.2188.469.001.067.2472.725.5313 1.469l.5 1.343.5313.281c.3897.199.5014.275.5.344-.0005.023-.1207.703-.1876 1.063 1.0205.842 2.1541 1.536 3.4376 1.969 1.1726-1.206 2.3012-2.396 2.4692-2.563l.25-.25.062-.656c.055-.369.123-.71.125-.75s.166-.209.344-.407c.163-.18.259-.334.281-.374v-.063c-.031-.038-.463-.36-1.031-.75l-1.0628-.719-.375-.031c-.2569-.005-.3918-.015-.4374-.063-.0379-.039-.0975-.261-.125-.531-.0267-.261-.0799-.507-.0938-.531s-.2625-.025-.5625-.031c-.3-.007-.5892-.039-.625-.063-.04-.026-.039-.233-.0625-.5-.021-.238-.068-.441-.0938-.468-.0257-.028-.374-.071-.7812-.094-.6752-.039-.798-.042-1.1562-.188l-.4063-.187-.5313.25-.5624.219-.5938-.032c-.678-.013-.6374.076-.7188-.531-.028-.209-.0371-.39-.0624-.406-.0254-.017-.1749-.043-.3126-.063l-.25-.062.0313-.156c.0036-.108.0072-.322.0313-.469l.0312-.281-.1562-.157-.2188-.093zm3.0938.343c-.0252.024-.0455.126-.0626.219l-.0312.156.9688.406c.9775.375 1.1549.402 1.3124.25.0601-.057.047-.061-.0937-.124-.0901-.041-.5791-.301-1.0937-.532-.5679-.254-.9723-.401-1-.375z" fill="#27ae60" transform="translate(0 1028.4)"/></g></svg>